<svg height="409pt" viewBox="-13 0 409 409.42933" width="409pt" xmlns="http://www.w3.org/2000/svg"><path d="m359.8125 28.332031c1.707031 0 3.414062-.683593 4.777344-2.050781l14.507812-14.503906c2.730469-2.730469 2.730469-7 0-9.730469-2.730468-2.730469-6.996094-2.730469-9.730468 0l-14.503907 14.507813c-2.730469 2.730468-2.730469 6.996093 0 9.726562 1.363281 1.367188 3.242188 2.050781 4.949219 2.050781zm0 0"/><path d="m326.019531 62.121094c1.707031 0 3.414063-.679688 4.777344-2.046875l14.507813-14.507813c2.730468-2.730468 2.730468-6.996094 0-9.726562-2.730469-2.730469-6.996094-2.730469-9.726563 0l-14.507813 14.507812c-2.730468 2.730469-2.730468 6.996094 0 9.726563 1.367188 1.367187 3.242188 2.046875 4.949219 2.046875zm0 0"/><path d="m335.578125 26.28125c1.363281 1.367188 3.070313 2.050781 4.777344 2.050781s3.414062-.683593 4.777343-2.050781c2.730469-2.730469 2.730469-6.996094 0-9.726562l-14.503906-14.507813c-2.730468-2.730469-7-2.730469-9.730468 0-2.730469 2.730469-2.730469 7 0 9.730469zm0 0"/><path d="m369.367188 60.074219c1.367187 1.367187 3.074218 2.046875 4.78125 2.046875 1.707031 0 3.414062-.679688 4.777343-2.046875 2.730469-2.730469 2.730469-6.996094 0-9.726563l-14.507812-14.507812c-2.730469-2.730469-6.996094-2.730469-9.726563 0-2.730468 2.730468-2.730468 6.996094 0 9.726562zm0 0"/><path d="m382.851562 356.691406c-1.707031-5.460937-5.289062-9.898437-10.238281-12.457031-4.949219-2.730469-10.582031-3.242187-16.042969-1.535156-5.460937 1.707031-9.898437 5.289062-12.460937 10.238281-2.730469 4.949219-3.242187 10.582031-1.535156 16.042969 1.707031 5.460937 5.289062 9.898437 10.238281 12.460937 3.074219 1.707032 6.488281 2.558594 9.902344 2.558594 2.046875 0 4.09375-.339844 6.140625-.851562 10.925781-3.585938 17.238281-15.363282 13.996093-26.457032zm-18.089843 13.144532c-1.878907.511718-3.925781.339843-5.632813-.511719-1.707031-.855469-3.070312-2.5625-3.582031-4.4375-.515625-1.878907-.34375-3.925781.511719-5.632813.851562-1.707031 2.558594-3.074218 4.4375-3.585937.679687-.167969 4.605468 0 5.628906.511719 1.707031.855468 3.074219 2.5625 3.585938 4.4375 1.195312 3.925781-1.023438 8.023437-4.949219 9.21875zm0 0"/><path d="m21.207031 114.175781c11.605469 0 20.992188-9.386719 20.992188-20.992187 0-11.605469-9.386719-20.992188-20.992188-20.992188-11.601562 0-20.988281 9.386719-20.988281 20.992188-.171875 11.605468 9.214844 20.992187 20.988281 20.992187zm0-28.5c4.097657 0 7.339844 3.242188 7.339844 7.335938 0 4.097656-3.242187 7.339843-7.339844 7.339843-4.09375 0-7.335937-3.242187-7.335937-7.339843-.171875-3.921875 3.242187-7.335938 7.335937-7.335938zm0 0"/><path d="m35.546875 338.773438c-2.734375-2.730469-7-2.730469-9.730469 0l-5.289062 5.289062-5.292969-5.289062c-2.730469-2.730469-6.996094-2.730469-9.726563 0-2.730468 2.730468-2.730468 6.996093 0 9.726562l5.289063 5.292969-5.289063 5.289062c-2.730468 2.730469-2.730468 6.996094 0 9.730469 1.363282 1.363281 3.070313 2.046875 4.777344 2.046875 1.707032 0 3.414063-.683594 4.78125-2.046875l5.289063-5.292969 5.289062 5.292969c1.367188 1.363281 3.074219 2.046875 4.78125 2.046875s3.414063-.683594 4.777344-2.046875c2.730469-2.734375 2.730469-7 0-9.730469l-5.289063-5.289062 5.289063-5.292969c2.902344-2.730469 2.902344-6.996094.34375-9.726562zm0 0"/><path d="m87.597656 34.132812c1.367188 1.367188 3.074219 2.046876 4.78125 2.046876 1.703125 0 3.410156-.679688 4.777344-2.046876l5.289062-5.289062 5.292969 5.289062c1.363281 1.367188 3.070313 2.046876 4.777344 2.046876s3.414063-.679688 4.777344-2.046876c2.730469-2.730468 2.730469-6.996093 0-9.726562l-5.289063-5.292969 5.289063-5.289062c2.730469-2.730469 2.730469-6.996094 0-9.726563-2.730469-2.730468-6.996094-2.730468-9.726563 0l-5.289062 5.289063-5.292969-5.289063c-2.730469-2.730468-6.996094-2.730468-9.726563 0-2.730468 2.730469-2.730468 6.996094 0 9.726563l5.289063 5.289062-5.289063 5.292969c-2.21875 2.730469-2.21875 6.996094.339844 9.726562zm0 0"/><path d="m346.328125 224.257812c-.167969-.683593-1.363281-8.363281-1.875-10.242187-1.195313-5.121094-5.632813-19.796875-6.488281-21.84375-.167969-.511719-5.117188-12.289063-5.628906-13.140625-4.609376-9.730469-10.242188-18.945312-16.726563-27.480469-16.554687-21.671875-36.863281-35.15625-41.472656-38.058593-10.070313-6.484376-42.324219-26.621094-88.40625-25.941407-47.785157.683594-80.554688 23.210938-90.621094 30.210938-3.925781 2.730469-8.195313 6.140625-12.972656 10.238281-25.769531 22.527344-44.03125 53.078125-51.371094 87.382812 0 .339844-1.363281 7.507813-1.707031 9.042969-.167969.683594-1.023438 8.191407-1.023438 8.363281-1.707031 16.554688-.851562 33.621094 2.902344 50.6875 9.214844 41.8125 34.304688 77.652344 70.3125 100.695313 26.113281 16.722656 55.808594 25.257813 86.019531 25.257813 11.601563 0 23.378907-1.195313 34.984375-3.925782 23.382813-5.121094 44.714844-15.1875 63.488282-29.695312 3.070312-2.390625 3.585937-6.65625 1.195312-9.558594s-6.65625-3.582031-9.558594-1.195312c-17.238281 13.3125-36.691406 22.359374-58.027344 27.136718-38.226562 8.535156-77.480468 1.535156-110.589843-19.625-33.109375-21.164062-55.980469-53.761718-64.34375-91.992187-1.703125-7.335938-2.730469-14.675781-3.242188-22.015625 44.546875-14.503906 96.769531-22.355469 151.894531-22.355469 50.347657 0 99.15625 6.65625 141.3125 18.945313-1.023437 22.527343-6.996093 44.542968-18.089843 64.511718-1.878907 3.242188-.683594 7.507813 2.730469 9.214844 3.242187 1.878906 7.507812.683594 9.214843-2.730469 17.066407-31.234375 23.382813-66.902343 18.089844-101.886719zm-153.257813-2.050781c-54.785156 0-107.179687 7.511719-152.0625 21.675781 0-2.046874 1.023438-12.800781 1.023438-13.3125.167969-1.195312 1.363281-8.53125 1.363281-9.214843 5.972657-31.402344 22.015625-60.074219 45.398438-81.410157 0 0 .171875 0 .171875-.167968 4.605468-4.269532 13.652344-12.460938 26.792968-19.796875 12.117188-6.828125 22.359376-9.902344 28.5-11.949219 5.804688-1.875 23.210938-5.121094 25.261719-5.460938.511719 0 11.945313-1.023437 12.96875-1.023437 1.707031 0 5.460938-.171875 5.632813-.171875 56.492187.171875 108.375 33.109375 132.4375 84.140625.171875.339844 7.851562 20.820313 8.363281 22.527344.167969.511719 3.070313 12.457031 3.414063 14.507812 1.023437 5.800781 1.703124 11.605469 2.046874 17.746094-42.667968-11.773437-91.136718-18.089844-141.3125-18.089844zm0 0"/><path d="m312.878906 337.921875c-2.902344-2.390625-7.339844-1.878906-9.558594 1.191406-3.070312 3.925781-6.3125 7.679688-9.726562 11.265625-2.5625 2.730469-2.5625 6.996094.167969 9.726563 1.367187 1.195312 3.074219 1.878906 4.78125 1.878906 1.875 0 3.582031-.683594 4.949219-2.046875 3.753906-3.925781 7.339843-8.023438 10.75-12.289062 2.21875-3.074219 1.707031-7.339844-1.363282-9.726563zm0 0"/><path d="m274.476562 145.75c-31.058593 10.070312-52.90625 22.867188-66.898437 38.910156-2.5625 2.050782-4.097656 5.121094-4.097656 8.363282 0 3.753906 2.046875 7.167968 5.292969 9.046874 18.429687 10.410157 46.929687 13.652344 62.121093 14.503907h1.195313c4.4375 0 8.875-1.703125 12.289062-4.605469 3.753906-3.242188 5.972656-7.851562 6.3125-12.972656 1.535156-25.941406-7.339844-48.46875-7.679687-49.320313-1.367188-3.242187-5.121094-4.949219-8.535157-3.925781zm2.5625 52.566406c0 1.363282-.683593 2.558594-1.707031 3.582032-1.023437.855468-2.21875 1.367187-3.585937 1.195312-4.949219-.339844-11.261719-.855469-18.089844-1.707031.511719-1.878907.683594-3.925781.683594-6.316407 0-7.507812-3.070313-13.652343-6.828125-13.652343-3.753907 0-6.824219 6.144531-6.824219 13.652343 0 1.367188.167969 2.730469.339844 4.097657-7.679688-1.707031-15.359375-3.925781-21.84375-6.828125 11.433594-12.285156 29.183594-22.695313 53.074218-31.230469 2.390626 7.679687 5.632813 21.84375 4.78125 37.207031zm0 0"/><path d="m165.082031 184.832031c-13.996093-16.042969-36.011719-28.84375-66.902343-38.910156-3.414063-1.027344-7.167969.679687-8.535157 3.921875-.339843 1.027344-9.214843 23.382812-7.679687 49.324219.34375 4.949219 2.5625 9.558593 6.316406 12.96875 3.414062 3.074219 7.679688 4.609375 12.289062 4.609375h1.191407c15.363281-1.023438 43.691406-4.09375 62.125-14.507813 3.242187-1.875 5.289062-5.289062 5.289062-9.042969-.167969-3.414062-1.707031-6.484374-4.09375-8.363281zm-33.792969 14.164063c.171876-1.363282.339844-2.730469.339844-4.09375 0-7.511719-3.070312-13.65625-6.824218-13.65625-3.753907 0-6.828126 6.144531-6.828126 13.65625 0 2.21875.339844 4.4375.683594 6.3125-6.828125 1.023437-13.140625 1.539062-18.089844 1.707031-1.367187.171875-2.5625-.339844-3.585937-1.195313-1.023437-.851562-1.535156-2.21875-1.707031-3.582031-.851563-15.191406 2.390625-29.527343 4.78125-37.375 23.890625 8.53125 41.640625 18.941407 53.074218 31.230469-6.3125 3.242188-13.992187 5.460938-21.84375 6.996094zm0 0"/></svg>