<svg xmlns="http://www.w3.org/2000/svg" width="48" height="48" data-name="Layer 1" viewBox="0 0 48 48"><path d="M29.43,12a.94.94,0,0,1,1,.82h0c.64,5.8-1.31,9.84-5.82,11.89l-.27.12c-3.9,1.67-5.54,5-5,10.11a.93.93,0,1,1-1.84.2h0c-.64-5.8,1.31-9.84,5.82-11.89l.27-.12c3.9-1.67,5.54-5,5-10.11a.94.94,0,0,1,.82-1Z"/><path d="M26.38 25.45a.92.92 0 0 0 .1 1.3c1.37 1.19 2.13 4 2.13 8.32a.92.92 0 1 0 1.84 0c0-4.85-.88-8.09-2.77-9.72a.91.91 0 0 0-1.3.09zM17.56 12.82c-.66 4.93.37 8.36 3.18 10.12a.92.92 0 1 0 1-1.56c-2.09-1.32-2.91-4-2.34-8.32a.92.92 0 0 0-1.82-.28zM26.76 13.84a.92.92 0 0 1 .11 1.83H21.24a.93.93 0 0 1-.93-.92.94.94 0 0 1 .82-.92h5.63z"/><path d="M26.76 17.52a.92.92 0 0 1 .11 1.84H21.24a.92.92 0 0 1-.11-1.84h5.63zM26.76 28.58a.92.92 0 0 1 .11 1.84H21.24a.92.92 0 0 1-.11-1.83h5.63zM26.76 32.27a.92.92 0 0 1 .11 1.83H21.24a.93.93 0 0 1-.93-.92.94.94 0 0 1 .82-.92h5.63z"/></svg>